<svg width="251" height="38" viewBox="0 0 251 38" fill="none" xmlns="http://www.w3.org/2000/svg">
<path d="M13.632 3.016C16.032 3.016 18.112 3.368 19.872 4.072C21.664 4.744 23.312 5.784 24.816 7.192L21.456 11.08C20.272 10.12 19.088 9.416 17.904 8.968C16.72 8.52 15.456 8.296 14.112 8.296C12.64 8.296 11.456 8.616 10.56 9.256C9.69602 9.864 9.26402 10.744 9.26402 11.896C9.26402 12.696 9.44002 13.352 9.79202 13.864C10.176 14.376 10.832 14.856 11.76 15.304C12.688 15.752 14.08 16.264 15.936 16.84C19.232 17.896 21.696 19.208 23.328 20.776C24.96 22.312 25.776 24.52 25.776 27.4C25.776 29.448 25.264 31.256 24.24 32.824C23.216 34.36 21.728 35.576 19.776 36.472C17.824 37.336 15.536 37.768 12.912 37.768C10.288 37.768 7.95202 37.352 5.90402 36.52C3.85602 35.688 2.09602 34.552 0.624023 33.112L4.22402 29.128C5.50402 30.216 6.83202 31.048 8.20802 31.624C9.58402 32.168 11.088 32.44 12.72 32.44C14.448 32.44 15.824 32.04 16.848 31.24C17.904 30.44 18.432 29.32 18.432 27.88C18.432 26.984 18.24 26.248 17.856 25.672C17.504 25.064 16.88 24.52 15.984 24.04C15.088 23.56 13.792 23.064 12.096 22.552C8.48002 21.432 5.88802 20.088 4.32002 18.52C2.78402 16.952 2.01602 14.904 2.01602 12.376C2.01602 10.52 2.51202 8.888 3.50402 7.48C4.49602 6.04 5.87202 4.936 7.63202 4.168C9.39202 3.4 11.392 3.016 13.632 3.016Z" fill="#DBE6E7"/>
<path d="M49.9407 29.944C49.9407 30.936 50.0846 31.672 50.3727 32.152C50.6607 32.6 51.1406 32.936 51.8126 33.16L50.3727 37.672C48.8686 37.544 47.6366 37.192 46.6766 36.616C45.7486 36.04 45.0287 35.144 44.5167 33.928C42.8526 36.488 40.3086 37.768 36.8846 37.768C34.3566 37.768 32.3406 37.048 30.8366 35.608C29.3646 34.136 28.6286 32.232 28.6286 29.896C28.6286 27.112 29.6366 24.984 31.6526 23.512C33.6686 22.04 36.5646 21.304 40.3406 21.304H43.2687V20.056C43.2687 18.488 42.9166 17.4 42.2127 16.792C41.5087 16.184 40.3406 15.88 38.7086 15.88C36.9166 15.88 34.6767 16.328 31.9886 17.224L30.4526 12.664C33.6206 11.416 36.7566 10.792 39.8606 10.792C43.3167 10.792 45.8606 11.544 47.4926 13.048C49.1246 14.52 49.9407 16.728 49.9407 19.672V29.944ZM38.7566 32.872C40.6767 32.872 42.1806 31.928 43.2687 30.04V25.192H41.0126C37.3326 25.192 35.4926 26.568 35.4926 29.32C35.4926 30.44 35.7647 31.32 36.3087 31.96C36.8847 32.568 37.7006 32.872 38.7566 32.872Z" fill="#DBE6E7"/>
<path d="M69.9026 10.84C70.6706 10.84 71.5186 10.968 72.4466 11.224L71.2946 17.8C70.3987 17.576 69.6467 17.464 69.0387 17.464C67.5347 17.464 66.3667 17.992 65.5347 19.048C64.7027 20.104 64.0466 21.704 63.5667 23.848V37H56.7506V11.56H62.6546L63.2786 16.504C63.8867 14.712 64.7666 13.32 65.9186 12.328C67.1026 11.336 68.4306 10.84 69.9026 10.84Z" fill="#DBE6E7"/>
<path d="M93.5813 29.944C93.5813 30.936 93.7253 31.672 94.0133 32.152C94.3013 32.6 94.7813 32.936 95.4533 33.16L94.0133 37.672C92.5093 37.544 91.2773 37.192 90.3173 36.616C89.3893 36.04 88.6693 35.144 88.1573 33.928C86.4933 36.488 83.9493 37.768 80.5253 37.768C77.9973 37.768 75.9813 37.048 74.4773 35.608C73.0053 34.136 72.2693 32.232 72.2693 29.896C72.2693 27.112 73.2773 24.984 75.2933 23.512C77.3093 22.04 80.2053 21.304 83.9813 21.304H86.9093V20.056C86.9093 18.488 86.5573 17.4 85.8533 16.792C85.1493 16.184 83.9813 15.88 82.3493 15.88C80.5573 15.88 78.3173 16.328 75.6293 17.224L74.0933 12.664C77.2613 11.416 80.3973 10.792 83.5013 10.792C86.9573 10.792 89.5013 11.544 91.1333 13.048C92.7653 14.52 93.5813 16.728 93.5813 19.672V29.944ZM82.3973 32.872C84.3173 32.872 85.8213 31.928 86.9093 30.04V25.192H84.6533C80.9733 25.192 79.1333 26.568 79.1333 29.32C79.1333 30.44 79.4053 31.32 79.9493 31.96C80.5253 32.568 81.3413 32.872 82.3973 32.872Z" fill="#DBE6E7"/>
<path d="M114.599 10.792C116.807 10.792 118.535 11.48 119.783 12.856C121.063 14.2 121.703 16.072 121.703 18.472V37H114.887V19.624C114.887 18.248 114.647 17.288 114.167 16.744C113.687 16.168 112.999 15.88 112.103 15.88C110.311 15.88 108.679 17.048 107.207 19.384V37H100.391V1.432L107.207 0.712001V14.44C108.231 13.224 109.335 12.312 110.519 11.704C111.735 11.096 113.095 10.792 114.599 10.792Z" fill="#DBE6E7"/>
<path d="M157.619 37L155.747 29.56H145.331L143.459 37H136.115L146.339 3.784H154.931L165.107 37H157.619ZM146.675 24.328H154.403L150.515 9.016L146.675 24.328Z" fill="#DBE6E7"/>
<path d="M174.368 37.768C172.288 37.768 170.672 37.176 169.52 35.992C168.368 34.776 167.792 33.064 167.792 30.856V1.432L174.608 0.664001V30.664C174.608 31.784 175.072 32.344 176 32.344C176.512 32.344 176.96 32.248 177.344 32.056L178.736 36.904C177.424 37.48 175.968 37.768 174.368 37.768Z" fill="#DBE6E7"/>
<path d="M202.886 11.56L194.726 37H186.614L178.31 11.56H185.702L190.742 31.672L195.878 11.56H202.886Z" fill="#DBE6E7"/>
<path d="M227.317 23.704C227.317 24.024 227.269 24.904 227.173 26.344H211.285C211.509 28.648 212.133 30.28 213.157 31.24C214.181 32.2 215.573 32.68 217.333 32.68C218.421 32.68 219.445 32.504 220.405 32.152C221.365 31.8 222.405 31.24 223.525 30.472L226.357 34.312C223.509 36.616 220.293 37.768 216.709 37.768C212.709 37.768 209.637 36.568 207.493 34.168C205.349 31.768 204.277 28.52 204.277 24.424C204.277 21.832 204.725 19.512 205.621 17.464C206.549 15.384 207.877 13.752 209.605 12.568C211.365 11.384 213.445 10.792 215.845 10.792C219.461 10.792 222.277 11.928 224.293 14.2C226.309 16.472 227.317 19.64 227.317 23.704ZM220.549 21.784C220.549 17.56 219.029 15.448 215.989 15.448C214.581 15.448 213.477 15.976 212.677 17.032C211.909 18.056 211.445 19.736 211.285 22.072H220.549V21.784Z" fill="#DBE6E7"/>
<path d="M240.699 10.792C244.283 10.792 247.355 11.816 249.915 13.864L247.323 17.752C245.179 16.408 243.067 15.736 240.987 15.736C239.867 15.736 239.003 15.944 238.395 16.36C237.787 16.776 237.483 17.336 237.483 18.04C237.483 18.552 237.611 18.984 237.867 19.336C238.155 19.688 238.667 20.024 239.403 20.344C240.171 20.664 241.307 21.048 242.811 21.496C245.499 22.232 247.499 23.224 248.811 24.472C250.123 25.688 250.779 27.368 250.779 29.512C250.779 31.208 250.283 32.68 249.291 33.928C248.331 35.176 247.019 36.136 245.355 36.808C243.691 37.448 241.835 37.768 239.787 37.768C237.643 37.768 235.691 37.448 233.931 36.808C232.171 36.136 230.667 35.224 229.419 34.072L232.779 30.328C234.923 31.992 237.195 32.824 239.595 32.824C240.875 32.824 241.883 32.584 242.619 32.104C243.387 31.592 243.771 30.904 243.771 30.04C243.771 29.368 243.627 28.84 243.339 28.456C243.051 28.072 242.523 27.72 241.755 27.4C240.987 27.048 239.787 26.648 238.155 26.2C235.595 25.496 233.691 24.504 232.443 23.224C231.227 21.912 230.619 20.296 230.619 18.376C230.619 16.936 231.035 15.64 231.867 14.488C232.699 13.336 233.867 12.44 235.371 11.8C236.907 11.128 238.683 10.792 240.699 10.792Z" fill="#DBE6E7"/>
</svg>
